<?xml version="1.0" encoding="utf-8"?>
<!DOCTYPE svg PUBLIC "-//W3C//DTD SVG 1.0//EN" "http://www.w3.org/2001/REC-SVG-20010904/DTD/svg10.dtd">
<svg version="1.0" xmlns="http://www.w3.org/2000/svg" width="500px" height="500px" viewBox="0 0 500 500" preserveAspectRatio="xMidYMid meet">
 <g fill="#cbcfdb">
  <path d="M251.3 305.9 c-7 -37.5 -31.5 -62.8 -66.7 -68.9 -3.7 -0.7 -6.6 -1.4 -6.4 -1.5 0.2 -0.2 4.9 -1.5 10.5 -2.8 34.4 -8.5 55.1 -30.9 62.7 -67.7 l1.3 -6.5 1.2 6.7 c6.2 35.6 26.8 58.8 59.1 66.6 4.7 1.2 9.4 2.2 10.5 2.4 1.1 0.2 -2.3 1.4 -7.5 2.7 -24.8 5.9 -43.1 19.8 -53.4 40.7 -3.7 7.6 -7.9 20.9 -9.2 29.4 l-0.9 5.4 -1.2 -6.5z"/>
 </g>
 <g fill="#fefefe">
  <path d="M216.5 467.9 c-25 -3.4 -44 -9.1 -65.1 -19.4 -59 -28.8 -107.1 -87.7 -121.9 -149.5 -5.1 -21.1 -6 -29.2 -6 -54 0 -18.8 0.4 -24.5 2.2 -34.5 7.8 -42.8 26.9 -80.1 57.4 -111.9 34.4 -36 77.2 -59.1 127.5 -68.7 12.5 -2.4 52.7 -4 54.5 -2.2 0.7 0.7 -0.7 1.3 -4.3 1.8 -2.9 0.4 -6.2 0.9 -7.3 1 -1.1 0.2 -3.6 0.7 -5.5 1 -4.1 0.7 -14.1 3.5 -26 7.3 -13 4.1 -40.7 18.5 -50 25.9 -0.8 0.6 -4.2 3.2 -7.5 5.6 -8 6 -28.8 27.4 -35.8 36.8 -17.3 23.5 -28.7 50.3 -33.3 78.4 -2.4 14.5 -2.4 43.7 0 58 3.1 18.6 9.8 38.9 18.6 56.5 2.9 5.6 14.9 24.2 19.1 29.4 13.1 16.3 30 31.6 46 41.8 24.6 15.7 50.6 25.2 79.1 28.8 12.7 1.6 46.2 0.8 57.8 -1.5 17.1 -3.2 42.2 -11.8 55.5 -19 10.1 -5.4 16.1 -8.9 19.1 -11.2 1.7 -1.3 3.6 -2.3 4.2 -2.3 0.6 0 1.2 -0.3 1.4 -0.7 0.2 -0.5 3.7 -3.4 7.8 -6.5 10.1 -7.6 25.1 -22.4 33.3 -32.8 3.7 -4.7 7.1 -9 7.7 -9.7 3.2 -3.9 10 -15.5 15.6 -26.6 5.5 -10.9 9.3 -21.2 15.3 -40.7 1.6 -5.2 0.5 23.2 -1.3 34 -5.5 32.7 -17.2 60.6 -37 88 -6.5 9 -24.4 29.8 -29.2 34 -1.6 1.4 -6.1 5.2 -9.9 8.5 -22.4 19.4 -51.8 36.1 -79.5 45.1 -31.6 10.3 -69.6 13.8 -102.5 9.3z"/>
 </g>
</svg>
